<svg width="24" height="24" viewBox="0 0 24 24" fill="none" xmlns="http://www.w3.org/2000/svg">
<g clip-path="url(#clip0_2006_125)">
<path d="M13.883 16.0429L17.8446 11.5884H16.1464L13.883 16.0429ZM16.2938 10.6241H17.9679L15.5009 7.54107L16.2938 10.6241ZM8.93571 11.5884L12 17.6205L15.0643 11.5884H8.93571ZM12 0C5.37321 0 0 5.37321 0 12C0 18.6268 5.37321 24 12 24C18.6268 24 24 18.6268 24 12C24 5.37321 18.6268 0 12 0ZM19.6795 11.1839L12.1018 19.7045C12.075 19.7339 12.0375 19.75 12 19.75C11.9625 19.75 11.925 19.7339 11.8982 19.7045L4.32054 11.1839C4.29902 11.1598 4.2867 11.1288 4.28572 11.0965C4.28474 11.0642 4.29517 11.0325 4.31518 11.0071L8.07857 6.30357C8.10536 6.27143 8.14286 6.25268 8.18571 6.25268H15.8089C15.8518 6.25268 15.8893 6.27143 15.9161 6.30357L19.6795 11.0071C19.7015 11.0313 19.7137 11.0628 19.7137 11.0955C19.7137 11.1282 19.7015 11.1598 19.6795 11.1839ZM14.5768 10.6241L12 8.02054L9.42321 10.6241H14.5768ZM9.54375 7.35089L8.925 9.75625L11.3036 7.35089H9.54375ZM14.4563 7.35089H12.6964L15.075 9.75625L14.4563 7.35089ZM8.49911 7.54107L6.03214 10.6241H7.70625L8.49911 7.54107ZM6.15536 11.5884L10.117 16.0429L7.85357 11.5884H6.15536Z" fill="#00DED3"/>
</g>
<defs>
<clipPath id="clip0_2006_125">
<rect width="24" height="24" fill="white"/>
</clipPath>
</defs>
</svg>
